<svg width="86" height="44" viewBox="0 0 86 44" fill="none" xmlns="http://www.w3.org/2000/svg">
    <rect x="4.34872" y="20.9363" width="32.5154" height="6.36038" rx="3.18019"
        transform="rotate(-30.2231 4.34872 20.9363)" fill="#EA4335" stroke="#EA4335"
        stroke-width="6.36038" />
    <mask id="path-2-inside-1_292_88" fill="white">
        <path
            d="M3.18019 18.779C1.42382 21.8211 2.46613 25.7111 5.50825 27.4674L27.7971 40.3359C30.8392 42.0923 34.7292 41.05 36.4855 38.0078C38.2419 34.9657 37.1996 31.0758 34.1575 29.3194L11.8686 16.4509C8.8265 14.6945 4.93656 15.7369 3.18019 18.779Z" />
    </mask>
    <path
        d="M3.18019 18.779C1.42382 21.8211 2.46613 25.7111 5.50825 27.4674L27.7971 40.3359C30.8392 42.0923 34.7292 41.05 36.4855 38.0078C38.2419 34.9657 37.1996 31.0758 34.1575 29.3194L11.8686 16.4509C8.8265 14.6945 4.93656 15.7369 3.18019 18.779Z"
        fill="#4285F4" />
    <path
        d="M5.50825 27.4674L18.8981 4.27559L41.1869 17.1441L27.7971 40.3359L14.4073 63.5277L-7.88156 50.6593L5.50825 27.4674ZM34.1575 29.3194L20.7677 52.5112L-1.52119 39.6428L11.8686 16.4509L25.2584 -6.74091L47.5473 6.12756L34.1575 29.3194ZM11.8686 16.4509L-1.52119 39.6428C8.24521 45.2814 20.7334 41.9351 26.372 32.1688L3.18019 18.779L-20.0116 5.38917C-10.8603 -10.4614 9.4078 -15.8923 25.2584 -6.74091L11.8686 16.4509ZM36.4855 38.0078L13.2937 24.618C7.65508 34.3844 11.0013 46.8726 20.7677 52.5112L34.1575 29.3194L47.5473 6.12756C63.3979 15.2789 68.8287 35.547 59.6774 51.3976L36.4855 38.0078ZM27.7971 40.3359L41.1869 17.1441C31.4205 11.5054 18.9323 14.8517 13.2937 24.618L36.4855 38.0078L59.6774 51.3976C50.526 67.2482 30.2579 72.6791 14.4073 63.5277L27.7971 40.3359ZM5.50825 27.4674L-7.88156 50.6593C-23.7322 41.5079 -29.163 21.2398 -20.0116 5.38917L3.18019 18.779L26.372 32.1688C32.0106 22.4024 28.6644 9.9142 18.8981 4.27559L5.50825 27.4674Z"
        fill="#4285F4" mask="url(#path-2-inside-1_292_88)" />
    <rect x="81.1869" y="23.3465" width="32.0973" height="6.36038" rx="3.18019"
        transform="rotate(149.777 81.1869 23.3465)" fill="#FBBC04" stroke="#FBBC04"
        stroke-width="6.36038" />
    <rect x="-4.5232" y="1.19313" width="32.5351" height="6.61557" rx="3.30778"
        transform="matrix(-0.864072 -0.503368 -0.503368 0.864072 77.7857 17.5925)" fill="#0F9D58"
        stroke="#0F9D58" stroke-width="6.61557" />
</svg>